# xmcd CD database file
#
# Track frame offsets:
#	150
#	20420
#	43313
#	66080
#	92128
#	110993
#	134657
#	157905
#	183265
#	208155
#
# Disc length: 3119 seconds
#
# Revision: 0
# Processed by: cddbd v1.5.2PL0 Copyright (c) Steve Scherf et al.
# Submitted via: CDex 1.70beta2
#
DISCID=930c2d0a
DTITLE=Vadu - Dixi Rubera
DYEAR=2007
DGENRE=Jazz
TTITLE0=Bida Cansadu
TTITLE1=La fora
TTITLE2=Lus
TTITLE3=Palo ku Palito
TTITLE4=Sol bai
TTITLE5=Dixi Rubera
TTITLE6=Fazen Sabi
TTITLE7=Danu Txuba
TTITLE8=Amizadi
TTITLE9=Monte Graciosa
EXTD=YEAR: 2007
EXTT0=
EXTT1=
EXTT2=
EXTT3=
EXTT4=
EXTT5=
EXTT6=
EXTT7=
EXTT8=
EXTT9=
PLAYORDER=
